<svg version="1.1" id="Layer_1" xmlns="http://www.w3.org/2000/svg" xmlns:xlink="http://www.w3.org/1999/xlink" x="0px" y="0px"
	 width="100%" viewBox="0 0 1024 1024" enable-background="new 0 0 1024 1024" xml:space="preserve">
<path fill="#000000" opacity="1.000000" stroke="none" 
	d="
M113.066788,560.703369 
	C109.019188,550.939270 108.110123,540.972107 108.034363,530.994385 
	C107.828102,503.830048 107.811729,476.661926 108.018936,449.497589 
	C108.146111,432.824493 111.585861,417.032776 123.139854,404.134766 
	C135.580200,390.247284 151.228897,383.007446 169.887161,382.919037 
	C202.885574,382.762634 235.887009,382.652924 268.883881,382.924133 
	C301.956055,383.195953 326.715149,404.799957 332.116974,437.537079 
	C332.385834,439.166473 332.327484,440.858917 332.328461,442.522064 
	C332.345978,472.687927 331.956360,502.860626 332.480865,533.017456 
	C332.893707,556.753845 324.165894,575.568726 305.678253,590.327576 
	C287.063965,605.187622 268.785461,620.468018 250.324661,635.521118 
	C248.407959,637.083984 246.483780,638.744385 243.919617,639.263916 
	C234.648193,641.142395 231.161285,638.408813 231.007599,628.835388 
	C230.881897,621.004395 230.819366,613.163574 231.080170,605.338806 
	C231.229523,600.857727 229.811432,599.218445 225.102570,599.280396 
	C206.772873,599.521484 188.438095,599.386902 170.105225,599.369568 
	C144.670380,599.345459 122.836624,584.630981 113.066788,560.703369 
z"/>
<path fill="#000000" opacity="1.000000" stroke="none" 
	d="
M821.444763,576.607056 
	C820.073120,575.355835 818.923584,574.386169 817.883545,573.310730 
	C816.849182,572.241150 815.924744,571.065186 814.316711,569.198181 
	C814.316711,574.990356 814.316345,580.046997 814.316833,585.103699 
	C814.318115,598.770325 814.218201,612.438171 814.385986,626.102783 
	C814.433411,629.963562 813.198730,631.471130 809.230713,631.355591 
	C801.403870,631.127625 793.555481,631.029419 785.736572,631.362610 
	C780.845886,631.571045 779.544983,629.758911 779.561096,625.038940 
	C779.711670,580.872925 779.650391,536.706177 779.651062,492.539673 
	C779.651184,482.873047 779.771362,473.204224 779.594299,463.540863 
	C779.527710,459.902863 780.717163,458.500488 784.453796,458.593323 
	C792.615356,458.796082 800.791016,458.833008 808.949768,458.578735 
	C813.047668,458.451019 814.797791,459.770264 814.362000,463.958282 
	C814.122559,466.259430 814.319153,468.605957 814.319153,470.831482 
	C815.563171,471.589264 816.048218,470.622742 816.489807,470.114990 
	C839.166626,444.039062 889.792664,450.322021 903.451477,490.917023 
	C911.341125,514.365662 911.186035,537.756042 899.459106,560.118958 
	C882.806458,591.875244 841.059814,593.835144 821.444763,576.607056 
M872.031982,536.485596 
	C875.107544,527.619385 875.535278,518.592285 873.441956,509.478882 
	C870.260315,495.627930 860.099426,486.815186 846.981079,486.369537 
	C830.728027,485.817352 820.988281,492.421936 816.126587,506.980042 
	C813.903137,513.637878 814.062500,520.435242 814.375610,527.237305 
	C814.731445,534.966064 817.739624,541.716370 822.718201,547.637146 
	C832.992798,559.856506 863.646362,560.526855 872.031982,536.485596 
z"/>
<path fill="#000000" opacity="1.000000" stroke="none" 
	d="
M420.845093,414.608337 
	C449.876831,405.875610 476.607025,409.150085 500.072601,428.516541 
	C513.708740,439.770660 521.656250,454.799255 525.163696,472.011932 
	C523.429932,473.894409 521.490845,473.284668 519.759766,473.295868 
	C510.597961,473.354919 501.435089,473.268066 492.273651,473.351166 
	C489.704559,473.374451 487.844757,472.903992 486.905090,470.120483 
	C481.237518,453.331146 469.114624,444.089050 451.863068,442.570923 
	C433.869812,440.987518 419.355988,447.977325 409.401123,463.457916 
	C395.221283,485.508728 396.432648,519.400146 411.362213,538.849121 
	C430.852875,564.239746 473.089233,561.047729 486.147095,531.577576 
	C486.752136,530.212036 487.222473,528.726807 489.155212,528.728394 
	C500.918701,528.738037 512.682190,528.733276 525.094360,528.733276 
	C521.891296,541.734741 516.207764,552.506592 508.055878,561.934204 
	C489.742310,583.113770 466.347015,590.320312 438.793732,588.646484 
	C404.144501,586.541504 370.265167,560.111084 364.611328,516.055176 
	C362.292877,497.989227 363.287933,480.341919 370.399048,463.220642 
	C380.140930,439.765228 396.603912,423.480743 420.845093,414.608337 
z"/>
<path fill="#000000" opacity="1.000000" stroke="none" 
	d="
M715.785278,505.982056 
	C726.510193,507.781769 736.892578,508.940796 746.862732,512.454956 
	C760.911743,517.406677 770.585632,526.200928 772.114563,541.543518 
	C773.695923,557.413147 767.769836,570.241577 754.261475,579.156494 
	C741.638855,587.486938 727.588440,589.710938 712.763855,588.754700 
	C702.838501,588.114563 693.282654,586.159973 684.612610,581.158691 
	C672.297546,574.054688 663.981018,564.044250 662.157837,549.396301 
	C661.744873,546.078979 662.680298,544.745850 666.015259,544.773865 
	C674.846985,544.848145 683.679932,544.828308 692.512085,544.784851 
	C694.894348,544.773132 696.076721,545.605225 696.431213,548.166504 
	C697.237732,553.995056 700.980652,557.964722 706.164795,559.922852 
	C715.069519,563.286316 724.068359,563.205933 732.630798,558.413696 
	C737.049133,555.940857 738.732300,551.776306 738.476868,547.066650 
	C738.206116,542.073608 735.009338,538.980408 730.386597,537.322083 
	C721.695068,534.204102 712.498596,533.809326 703.500244,532.362915 
	C694.908386,530.981812 686.591370,528.869934 679.045654,524.320496 
	C661.825806,513.938416 657.096680,492.048492 668.955872,475.774994 
	C681.622803,458.392975 699.639832,453.346558 720.086670,455.022980 
	C731.636597,455.969971 742.828369,458.560913 752.290649,465.826172 
	C761.146790,472.626038 768.012268,480.733612 768.395630,492.666901 
	C768.405884,492.985168 768.273193,493.307983 768.148193,493.914948 
	C764.189270,495.011658 760.040466,494.261169 755.958313,494.369171 
	C750.629456,494.510162 745.292847,494.331146 739.961365,494.412292 
	C737.090149,494.455994 734.952148,494.258453 734.213867,490.581360 
	C733.548645,487.268829 731.087708,484.779266 727.911011,483.224457 
	C720.314026,479.506073 712.526855,479.144684 704.716187,482.263306 
	C699.340088,484.409851 697.053406,488.671539 697.325317,494.565979 
	C697.575256,499.984375 700.987244,502.412262 705.632751,503.854736 
	C708.817322,504.843567 712.036011,505.617889 715.785278,505.982056 
z"/>
<path fill="#000000" opacity="1.000000" stroke="none" 
	d="
M531.663452,569.990723 
	C531.662537,534.683960 531.750122,499.875641 531.561646,465.068848 
	C531.534912,460.127655 532.791870,458.253937 537.971313,458.541016 
	C545.609131,458.964325 553.288818,458.747253 560.947754,458.622772 
	C564.124878,458.571167 565.398254,459.714691 565.386108,462.973022 
	C565.372070,466.728424 564.686035,470.589386 566.128418,474.360626 
	C567.934753,473.778900 568.301208,472.192688 569.101440,471.025635 
	C577.153442,459.282196 591.226562,455.660614 603.894043,457.336243 
	C606.042297,457.620453 607.837219,458.223724 607.838745,460.857025 
	C607.843933,469.980438 607.840698,479.103851 607.840698,488.526337 
	C601.107361,488.703491 594.863281,487.761627 588.649353,489.195404 
	C576.794495,491.930847 568.569824,501.031067 567.334534,513.190063 
	C565.191833,534.281799 566.861633,555.429565 566.366028,576.545532 
	C566.206299,583.351196 566.313416,583.369141 559.494873,583.381226 
	C551.833862,583.394836 544.169067,583.234375 536.513367,583.433899 
	C532.788635,583.531006 531.385193,582.111755 531.637573,578.481079 
	C531.821899,575.829468 531.667236,573.154236 531.663452,569.990723 
z"/>
<path fill="#000000" opacity="1.000000" stroke="none" 
	d="
M645.909485,458.650116 
	C649.824951,458.439087 652.432617,458.594086 652.413330,463.423279 
	C652.258484,502.219727 652.319214,541.017029 652.294739,579.814087 
	C652.294128,580.783386 652.072205,581.752625 651.883423,583.294006 
	C641.340942,583.294006 630.912842,583.305359 620.484802,583.283264 
	C618.659729,583.279419 617.800720,582.202148 617.742249,580.434692 
	C617.703735,579.270142 617.662781,578.104980 617.662598,576.940063 
	C617.657532,539.641541 617.744385,502.342590 617.552002,465.045074 
	C617.526367,460.079498 618.790161,458.240906 623.947693,458.545654 
	C631.082703,458.967285 638.261414,458.650391 645.909485,458.650116 
z"/>
<path fill="#000000" opacity="1.000000" stroke="none" 
	d="
M614.036133,431.244873 
	C611.816162,416.242981 619.607727,409.213104 627.923157,407.265350 
	C636.070618,405.356873 643.591858,406.918274 649.460449,413.194366 
	C654.705078,418.803162 655.663269,425.592529 653.189453,432.733459 
	C650.802673,439.623169 645.266235,442.702454 638.467163,443.900421 
	C629.983704,445.395172 616.973877,443.012024 614.036133,431.244873 
z"/>
</svg>